<?xml version="1.0" encoding="UTF-8" standalone="no"?><svg xmlns="http://www.w3.org/2000/svg" xmlns:xlink="http://www.w3.org/1999/xlink" contentStyleType="text/css" height="385px" preserveAspectRatio="none" style="width:441px;height:385px;background:#FFFFFF;" version="1.1" viewBox="0 0 441 385" width="441px" zoomAndPan="magnify"><defs/><g><!--MD5=[76410cda49e5d7b75c5bd06aa47a685f]
class message--><g id="elem_message"><rect codeLine="4" fill="#F1F1F1" height="32" id="message" rx="2.5" ry="2.5" style="stroke:#181818;stroke-width:0.5;" width="213" x="59" y="7"/><ellipse cx="74" cy="23" fill="#ADD1B2" rx="11" ry="11" style="stroke:#181818;stroke-width:1.0;"/><path d="M76.7656,18.875 Q76.9219,18.6563 77.1094,18.5469 Q77.2969,18.4375 77.5156,18.4375 Q77.8906,18.4375 78.125,18.6953 Q78.3594,18.9531 78.3594,19.5625 L78.3594,21.0156 Q78.3594,21.625 78.125,21.8906 Q77.8906,22.1563 77.5156,22.1563 Q77.1719,22.1563 76.9688,21.9531 Q76.7656,21.7656 76.6563,21.25 Q76.6094,20.8906 76.4219,20.7031 Q76.0938,20.3281 75.4844,20.1094 Q74.875,19.8906 74.25,19.8906 Q73.4844,19.8906 72.8516,20.2188 Q72.2188,20.5469 71.7266,21.2969 Q71.2344,22.0469 71.2344,23.0781 L71.2344,24.1719 Q71.2344,25.4063 72.125,26.2266 Q73.0156,27.0469 74.6094,27.0469 Q75.5469,27.0469 76.2031,26.7969 Q76.5938,26.6406 77.0156,26.2031 Q77.2813,25.9375 77.4297,25.8594 Q77.5781,25.7813 77.7813,25.7813 Q78.1094,25.7813 78.3672,26.0391 Q78.625,26.2969 78.625,26.6406 Q78.625,26.9844 78.2813,27.3906 Q77.7813,27.9688 76.9844,28.2969 Q75.9063,28.75 74.6094,28.75 Q73.0938,28.75 71.8906,28.125 Q70.9063,27.625 70.2188,26.5547 Q69.5313,25.4844 69.5313,24.2031 L69.5313,23.0469 Q69.5313,21.7188 70.1484,20.5703 Q70.7656,19.4219 71.8594,18.8047 Q72.9531,18.1875 74.1875,18.1875 Q74.9219,18.1875 75.5703,18.3516 Q76.2188,18.5156 76.7656,18.875 Z " fill="#000000"/><text fill="#000000" font-family="sans-serif" font-size="14" lengthAdjust="spacing" textLength="181" x="88" y="28.7285">MedComMessagingMessage</text></g><!--MD5=[d74c0150cefd6163f70b4324cc822a09]
class messageHeader--><g id="elem_messageHeader"><rect codeLine="5" fill="#F1F1F1" height="32" id="messageHeader" rx="2.5" ry="2.5" style="stroke:#181818;stroke-width:0.5;" width="259" x="7" y="227"/><ellipse cx="22" cy="243" fill="#ADD1B2" rx="11" ry="11" style="stroke:#181818;stroke-width:1.0;"/><path d="M24.7656,238.875 Q24.9219,238.6563 25.1094,238.5469 Q25.2969,238.4375 25.5156,238.4375 Q25.8906,238.4375 26.125,238.6953 Q26.3594,238.9531 26.3594,239.5625 L26.3594,241.0156 Q26.3594,241.625 26.125,241.8906 Q25.8906,242.1563 25.5156,242.1563 Q25.1719,242.1563 24.9688,241.9531 Q24.7656,241.7656 24.6563,241.25 Q24.6094,240.8906 24.4219,240.7031 Q24.0938,240.3281 23.4844,240.1094 Q22.875,239.8906 22.25,239.8906 Q21.4844,239.8906 20.8516,240.2188 Q20.2188,240.5469 19.7266,241.2969 Q19.2344,242.0469 19.2344,243.0781 L19.2344,244.1719 Q19.2344,245.4063 20.125,246.2266 Q21.0156,247.0469 22.6094,247.0469 Q23.5469,247.0469 24.2031,246.7969 Q24.5938,246.6406 25.0156,246.2031 Q25.2813,245.9375 25.4297,245.8594 Q25.5781,245.7813 25.7813,245.7813 Q26.1094,245.7813 26.3672,246.0391 Q26.625,246.2969 26.625,246.6406 Q26.625,246.9844 26.2813,247.3906 Q25.7813,247.9688 24.9844,248.2969 Q23.9063,248.75 22.6094,248.75 Q21.0938,248.75 19.8906,248.125 Q18.9063,247.625 18.2188,246.5547 Q17.5313,245.4844 17.5313,244.2031 L17.5313,243.0469 Q17.5313,241.7188 18.1484,240.5703 Q18.7656,239.4219 19.8594,238.8047 Q20.9531,238.1875 22.1875,238.1875 Q22.9219,238.1875 23.5703,238.3516 Q24.2188,238.5156 24.7656,238.875 Z " fill="#000000"/><text fill="#000000" font-family="sans-serif" font-size="14" lengthAdjust="spacing" textLength="227" x="36" y="248.7285">MedComMessagingMessageHeader</text></g><!--MD5=[d64d5c7357c79f774106f79272da7625]
class organization--><g id="elem_organization"><rect codeLine="6" fill="#F1F1F1" height="42.7031" id="organization" rx="2.5" ry="2.5" style="stroke:#181818;stroke-width:0.5;" width="236" x="70.5" y="337"/><ellipse cx="85.5" cy="358.3516" fill="#ADD1B2" rx="11" ry="11" style="stroke:#181818;stroke-width:1.0;"/><path d="M88.2656,354.2266 Q88.4219,354.0078 88.6094,353.8984 Q88.7969,353.7891 89.0156,353.7891 Q89.3906,353.7891 89.625,354.0469 Q89.8594,354.3047 89.8594,354.9141 L89.8594,356.3672 Q89.8594,356.9766 89.625,357.2422 Q89.3906,357.5078 89.0156,357.5078 Q88.6719,357.5078 88.4688,357.3047 Q88.2656,357.1172 88.1563,356.6016 Q88.1094,356.2422 87.9219,356.0547 Q87.5938,355.6797 86.9844,355.4609 Q86.375,355.2422 85.75,355.2422 Q84.9844,355.2422 84.3516,355.5703 Q83.7188,355.8984 83.2266,356.6484 Q82.7344,357.3984 82.7344,358.4297 L82.7344,359.5234 Q82.7344,360.7578 83.625,361.5781 Q84.5156,362.3984 86.1094,362.3984 Q87.0469,362.3984 87.7031,362.1484 Q88.0938,361.9922 88.5156,361.5547 Q88.7813,361.2891 88.9297,361.2109 Q89.0781,361.1328 89.2813,361.1328 Q89.6094,361.1328 89.8672,361.3906 Q90.125,361.6484 90.125,361.9922 Q90.125,362.3359 89.7813,362.7422 Q89.2813,363.3203 88.4844,363.6484 Q87.4063,364.1016 86.1094,364.1016 Q84.5938,364.1016 83.3906,363.4766 Q82.4063,362.9766 81.7188,361.9063 Q81.0313,360.8359 81.0313,359.5547 L81.0313,358.3984 Q81.0313,357.0703 81.6484,355.9219 Q82.2656,354.7734 83.3594,354.1563 Q84.4531,353.5391 85.6875,353.5391 Q86.4219,353.5391 87.0703,353.7031 Q87.7188,353.8672 88.2656,354.2266 Z " fill="#000000"/><text fill="#000000" font-family="sans-serif" font-size="12" font-style="italic" lengthAdjust="spacing" textLength="162" x="120.5" y="354.457">«MedComCoreOrganization»</text><text fill="#000000" font-family="sans-serif" font-size="14" lengthAdjust="spacing" textLength="204" x="99.5" y="371.627">MedComMessagingOrganization</text></g><!--MD5=[134450525739527685064faa304c6b67]
class provenance--><g id="elem_provenance"><rect codeLine="7" fill="#F1F1F1" height="32" id="provenance" rx="2.5" ry="2.5" style="stroke:#181818;stroke-width:0.5;" width="232" x="202.5" y="117"/><ellipse cx="217.5" cy="133" fill="#ADD1B2" rx="11" ry="11" style="stroke:#181818;stroke-width:1.0;"/><path d="M220.2656,128.875 Q220.4219,128.6563 220.6094,128.5469 Q220.7969,128.4375 221.0156,128.4375 Q221.3906,128.4375 221.625,128.6953 Q221.8594,128.9531 221.8594,129.5625 L221.8594,131.0156 Q221.8594,131.625 221.625,131.8906 Q221.3906,132.1563 221.0156,132.1563 Q220.6719,132.1563 220.4688,131.9531 Q220.2656,131.7656 220.1563,131.25 Q220.1094,130.8906 219.9219,130.7031 Q219.5938,130.3281 218.9844,130.1094 Q218.375,129.8906 217.75,129.8906 Q216.9844,129.8906 216.3516,130.2188 Q215.7188,130.5469 215.2266,131.2969 Q214.7344,132.0469 214.7344,133.0781 L214.7344,134.1719 Q214.7344,135.4063 215.625,136.2266 Q216.5156,137.0469 218.1094,137.0469 Q219.0469,137.0469 219.7031,136.7969 Q220.0938,136.6406 220.5156,136.2031 Q220.7813,135.9375 220.9297,135.8594 Q221.0781,135.7813 221.2813,135.7813 Q221.6094,135.7813 221.8672,136.0391 Q222.125,136.2969 222.125,136.6406 Q222.125,136.9844 221.7813,137.3906 Q221.2813,137.9688 220.4844,138.2969 Q219.4063,138.75 218.1094,138.75 Q216.5938,138.75 215.3906,138.125 Q214.4063,137.625 213.7188,136.5547 Q213.0313,135.4844 213.0313,134.2031 L213.0313,133.0469 Q213.0313,131.7188 213.6484,130.5703 Q214.2656,129.4219 215.3594,128.8047 Q216.4531,128.1875 217.6875,128.1875 Q218.4219,128.1875 219.0703,128.3516 Q219.7188,128.5156 220.2656,128.875 Z " fill="#000000"/><text fill="#000000" font-family="sans-serif" font-size="14" lengthAdjust="spacing" textLength="200" x="231.5" y="138.7285">MedComMessagingProvenance</text></g><!--MD5=[fffb7fd05b1ac69401eabd1063be1169]
link message to messageHeader--><g id="link_message_messageHeader"><path codeLine="9" d="M163.46,39.33 C158.12,79.45 143.79,187.2 138.5,226.98 " fill="none" id="message-messageHeader" style="stroke:#181818;stroke-width:1.0;"/><text fill="#000000" font-family="sans-serif" font-size="13" lengthAdjust="spacing" textLength="29" x="154.5" y="138.4951">entry</text></g><!--MD5=[81f298224060e516a9ea14ff98c71ca4]
link message to provenance--><g id="link_message_provenance"><path codeLine="10" d="M186.77,39.02 C215.84,59.53 267.68,96.13 296.91,116.76 " fill="none" id="message-provenance" style="stroke:#181818;stroke-width:1.0;"/><text fill="#000000" font-family="sans-serif" font-size="13" lengthAdjust="spacing" textLength="29" x="251.5" y="83.4951">entry</text></g><!--MD5=[df78789b268a0a149f5d23d4e89f3481]
link provenance to organization--><g id="link_provenance_organization"><path codeLine="12" d="M318.91,149.1 C319.02,181.38 315.11,258.16 278.5,307 C269.15,319.47 255.76,329.3 242.16,336.84 " fill="none" id="provenance-organization" style="stroke:#181818;stroke-width:1.0;"/><text fill="#000000" font-family="sans-serif" font-size="13" lengthAdjust="spacing" textLength="59" x="311.5" y="248.4951">agent.who</text></g><!--MD5=[a864ff11b7a0255841c7b26aa9aedee8]
link provenance to messageHeader--><g id="link_provenance_messageHeader"><path codeLine="13" d="M293.19,149.02 C258.52,169.59 196.6,206.34 161.88,226.94 " fill="none" id="provenance-messageHeader" style="stroke:#181818;stroke-width:1.0;"/><text fill="#000000" font-family="sans-serif" font-size="13" lengthAdjust="spacing" textLength="33" x="238.5" y="193.4951">target</text></g><!--MD5=[746a33207db6e799502ef4ecf0370aea]
link messageHeader to organization--><g id="link_messageHeader_organization"><path codeLine="15" d="M95.77,259.07 C71.65,270.43 48.18,287.37 61.5,307 C70.36,320.06 83.19,329.74 97.32,336.92 " fill="none" id="messageHeader-organization" style="stroke:#181818;stroke-width:1.0;"/><text fill="#000000" font-family="sans-serif" font-size="13" lengthAdjust="spacing" textLength="39" x="62.5" y="303.4951">sender</text></g><!--MD5=[746a33207db6e799502ef4ecf0370aea]
link messageHeader to organization--><g id="link_messageHeader_organization"><path codeLine="16" d="M135.32,259.18 C134.89,272.38 135.74,291.73 142.5,307 C147.4,318.06 155.7,328.32 163.91,336.67 " fill="none" id="messageHeader-organization-1" style="stroke:#181818;stroke-width:1.0;"/><text fill="#000000" font-family="sans-serif" font-size="13" lengthAdjust="spacing" textLength="44" x="143.5" y="303.4951">receiver</text></g><!--MD5=[746a33207db6e799502ef4ecf0370aea]
link messageHeader to organization--><g id="link_messageHeader_organization"><path codeLine="17" d="M164.58,259.14 C175.4,266.58 186.57,276.63 192.5,289 C199.61,303.82 197.89,322.57 194.79,336.7 " fill="none" id="messageHeader-organization-2" style="stroke:#181818;stroke-width:1.0;"/><text fill="#000000" font-family="sans-serif" font-size="13" lengthAdjust="spacing" textLength="71" x="198.5" y="303.4951">carbon-copy</text></g><!--MD5=[9fc4492c0a653e5f7e79d852917af96a]
@startuml MessagingModel

hide empty members

class "MedComMessagingMessage" as message
class "MedComMessagingMessageHeader" as messageHeader
class "MedComMessagingOrganization" as organization <<MedComCoreOrganization>>
class "MedComMessagingProvenance" as provenance

message - - messageHeader : "entry"
message - - provenance : "entry"

provenance - - organization : "agent.who"
provenance - - messageHeader : "target"

messageHeader - - organization : "sender"
messageHeader - - organization : "receiver"
messageHeader - - organization : "carbon-copy"

@enduml

PlantUML version 1.2022.7(Mon Aug 22 19:01:30 CEST 2022)
(GPL source distribution)
Java Runtime: Java(TM) SE Runtime Environment
JVM: Java HotSpot(TM) 64-Bit Server VM
Default Encoding: Cp1252
Language: da
Country: DK
--></g></svg>